<svg width="244" height="114" viewBox="0 0 244 114" fill="none" xmlns="http://www.w3.org/2000/svg">
<path d="M125.349 94.1564L113.294 113.807H137.419L125.349 94.1564Z" fill="#F16F63"/>
<path d="M0 59.3616C0 41.2932 8.71275 33.4386 28.8949 33.4386C45.2206 33.4386 54.0334 38.6232 56.7757 50.2497H48.063C45.6777 42.5505 39.7216 39.2871 28.8949 39.2871C14.4975 39.2871 8.62706 45.1357 8.62706 59.3616C8.62706 73.5874 14.4975 79.436 28.8949 79.436C39.8073 79.436 45.7777 76.102 48.063 68.2474L56.7757 68.3887C54.1191 80.0858 45.2206 85.2846 28.8949 85.2846C8.71275 85.2846 0 77.43 0 59.3616Z" fill="white"/>
<path d="M63.6882 34.6676H73.3151V38.8068C77.8857 35.9532 84.3846 34.6676 92.9117 34.6676V41.2649C78.957 41.2649 73.3151 46.7745 73.3151 60.2657L73.4294 85.2705H63.6882V34.6676Z" fill="white"/>
<path d="M99.0254 60.8732V34.6676H107.91V60.8591C107.91 73.0648 111.909 78.0233 121.907 78.0233C132.905 78.0233 137.461 73.3614 137.461 60.8591V34.6676H146.574L146.346 85.2846H137.461V81.7105C132.905 84.6913 127.463 85.2846 121.907 85.2846C107.91 85.2846 99.0254 77.543 99.0254 60.8732Z" fill="white"/>
<path d="M155.458 34.6676H164.457V85.2846H155.458V34.6676Z" fill="white"/>
<path d="M205.007 41.9006H173.341V34.6676H220.218L189.224 77.5571H219.776V85.2846H173.341L205.007 41.9006Z" fill="white"/>
<path d="M229.56 34.6676H238.558V85.2846H229.56V34.6676Z" fill="white"/>
<path d="M201.335 14.3954C201.578 14.466 202.421 14.904 201.55 15.6951C199.136 17.8989 196.193 19.1844 192.923 20.0886C188.381 21.4024 183.153 21.3882 178.439 21.6143C170.769 21.9816 163.085 22.1229 155.401 22.2359C141.217 22.4336 127.077 22.8433 112.894 23.2389C108.737 23.3519 100.739 23.5214 92.9687 23.6627L92.9402 22.2641C95.1112 22.2217 97.2823 22.1794 99.4533 22.137C107.78 21.9675 116.093 21.6425 124.406 21.3883C125.877 16.0906 127.406 10.5811 130.005 5.60841L129.977 4.20984C154.044 3.85666 178.668 7.58619 201.364 14.4095L201.335 14.3954ZM192.508 18.7182C195.165 17.9836 197.565 16.9948 199.621 15.3843C189.966 12.5448 179.968 10.2421 169.798 8.5892C174.126 12.1068 178.154 15.9917 181.882 20.0179C182.682 19.9614 183.496 19.919 184.296 19.8625C187.024 19.6506 189.895 19.5094 192.508 18.7324V18.7182ZM179.939 20.1168C175.94 15.8646 171.598 11.796 166.913 8.16539C166.899 8.15127 166.87 8.13714 166.856 8.10889C157.829 6.75269 148.716 5.90508 139.618 5.63666C139.275 10.7506 138.804 15.8787 138.732 21.0068C139.646 20.9927 140.575 20.9786 141.489 20.9644C151.401 20.8514 161.3 20.7808 171.212 20.4559C174.126 20.357 177.04 20.2581 179.939 20.1027V20.1168Z" fill="white"/>
<path d="M129.948 4.19627L129.977 5.59484C127.963 5.6231 125.963 5.69373 123.963 5.7785C110.437 6.41421 97.2681 9.9177 85.0274 15.1729C86.113 15.3283 87.627 16.1194 88.3697 17.518C88.9982 18.7047 89.0696 20.3293 87.8127 22.3494C89.5124 22.3212 91.2263 22.2929 92.926 22.2647L92.9546 23.6633C84.0133 23.8328 75.372 23.9599 73.2009 23.9458C71.4727 23.9317 69.3016 23.974 67.9162 23.8752C66.6878 23.7339 66.4593 23.1829 67.5591 22.4483C71.7298 19.9761 76.0719 17.6593 80.5711 15.5685C80.8139 15.4414 81.071 15.3283 81.3281 15.2153C81.3281 15.2153 81.3281 15.2153 81.3424 15.2153C94.6115 9.14072 109.109 5.01564 123.963 4.3658C125.949 4.28104 127.948 4.22453 129.948 4.19627ZM77.086 22.5048C76.3861 21.2475 76.3861 20.0609 76.8574 18.9872C74.5864 20.1456 72.3582 21.3464 70.1586 22.6037C72.4582 22.6885 74.8007 22.5613 77.086 22.4907V22.5048Z" fill="white"/>
<path d="M73.9014 29.3841C79.3718 29.7656 84.828 30.1329 90.2842 30.4295C90.7555 30.2035 91.4411 30.0481 92.4695 29.9775C120.522 28.4094 151.973 27.5335 217.133 23.8463C205.807 23.027 152.288 25.0754 118.779 26.2338C102.696 26.7848 86.5991 27.5052 70.5448 28.5789C70.2449 28.5789 68.6451 28.7484 66.8455 29.0027C69.2165 29.0875 71.5732 29.2287 73.9014 29.3841Z" fill="white"/>
<path d="M243.771 31.8704C243.343 30.8392 242.914 29.8362 242.257 28.9179C242.929 28.0562 243.186 27.0814 243.1 25.8806C243.072 25.5839 242.986 25.2449 242.9 24.8917C242.729 24.2136 242.486 23.2671 242.843 22.9422L242.886 22.8998C243.029 22.7585 243.129 22.589 243.186 22.4054C243.2 22.3347 243.214 22.2641 243.229 22.1935V22.1511V22.0946C243.2 19.9614 242.657 18.577 239.915 17.7717C238.187 17.2631 236.159 17.2631 234.373 17.249H233.63C231.017 17.2208 228.403 17.1078 225.917 16.91C224.232 16.6557 222.518 16.133 220.875 15.6103C220.333 15.4408 219.804 15.2712 219.276 15.1158C217.605 14.6214 215.934 14.127 214.277 13.6325C211.463 12.799 208.563 11.9373 205.692 11.1179C195.423 8.15125 184.439 5.11394 173.17 3.33394C152.73 -0.197801 132.92 -0.932404 114.28 1.17252C95.9831 3.23506 79.6717 10.9625 63.9031 18.4357C62.889 18.916 61.8606 19.3963 60.8465 19.8766C50.7197 19.919 37.5363 20.3852 25.0813 23.6203C17.5826 25.5698 9.84113 28.2681 2.08535 31.6162L0 32.5203H6.07036L6.17034 32.4638C11.2552 30.486 19.2966 27.6889 24.8385 26.149C37.0364 22.7585 50.0484 22.2641 61.1607 22.2358C61.3749 22.2358 61.5892 22.1935 61.7749 22.0946H61.8177C62.9604 21.5436 64.0887 21.0068 65.2314 20.47C80.5287 13.2228 96.3402 5.73553 113.951 3.5741C132.134 1.34204 151.845 2.04839 172.541 5.6649C183.596 7.40252 194.609 10.4539 204.921 13.4065C208.063 14.3106 211.234 15.243 214.305 16.1612C215.548 16.5285 216.776 16.8958 218.019 17.2631C218.59 17.4327 219.176 17.6163 219.747 17.8C221.59 18.3792 223.489 18.9725 225.418 19.2409C225.446 19.2409 225.475 19.2409 225.518 19.2409C225.56 19.2409 225.603 19.2551 225.66 19.2551C228.274 19.467 231.145 19.5941 234.445 19.6224C236.016 19.6224 237.63 19.7778 239.215 20.0603C239.844 20.1733 240.172 20.3711 240.344 20.6678C236.687 20.6678 233.13 21.3741 230.102 22.0663L229.245 22.2641C226.96 22.7727 224.375 23.3519 222.332 24.4538C221.932 24.6657 221.704 25.0189 221.704 25.372C221.69 25.4992 221.704 25.6263 221.718 25.7393C222.632 29.7655 227.56 30.0763 229.188 30.1752C233.045 30.4154 236.644 30.3447 239.886 29.9774C240.501 30.712 240.915 31.5455 241.215 32.1954L241.343 32.492H244L243.743 31.8563L243.771 31.8704ZM240.286 24.7787C240.543 26.2197 240.629 27.152 239.629 27.6606C237.073 27.9431 234.416 27.9431 231.688 27.9149H231.102C228.703 27.9008 225.732 27.8866 224.661 26.0643C225.989 25.5133 227.517 25.1601 228.988 24.807C229.388 24.7081 229.774 24.6233 230.145 24.5244C234.045 23.5638 237.23 23.0976 240.129 23.0552C240.101 23.6062 240.201 24.1995 240.301 24.7787H240.286Z" fill="white"/>
<path d="M217.662 20.9079C212.177 20.9079 204.393 20.3852 200.122 20.0603C200.122 20.0603 197.951 20.809 197.008 20.9644C195.423 21.2329 189.967 21.7838 189.967 21.7838C195.437 22.2076 218.676 20.9079 217.662 20.9079Z" fill="white"/>
<path d="M130.906 21.4306H132.52C132.934 17.4751 134.134 7.09175 134.134 7.09175C133.105 11.0614 131.334 17.3621 130.92 21.4306H130.906Z" fill="white"/>
</svg>
