<svg width="664" height="99" viewBox="0 0 664 99" fill="none" xmlns="http://www.w3.org/2000/svg">
<g opacity="0.59" clip-path="url(#clip0_86_3)">
<path d="M274.33 27.9249C269.27 28.4533 265.275 29.8111 261.214 32.3729C258.423 34.1321 255.605 36.7675 253.535 39.55C250.85 43.162 249.011 47.4227 248.211 51.8975C247.867 53.8172 247.807 54.5664 247.807 57.1482C247.814 59.2619 247.827 59.69 247.959 60.6599C248.409 64.0176 249.229 66.8671 250.565 69.6964C254.745 78.5457 263.073 84.7195 272.65 86.0706C274.251 86.298 275.527 86.3649 277.34 86.3248C279.741 86.2713 281.394 86.0572 283.623 85.5021C287.446 84.5522 290.958 82.8667 294.094 80.4721C294.49 80.1711 294.828 79.9236 294.841 79.9236C294.854 79.9236 295.165 80.1577 295.542 80.452C299.564 83.5623 304.531 85.5622 309.749 86.1843C310.98 86.3248 313.764 86.3783 315.041 86.2846C320.703 85.8499 325.862 83.8967 330.373 80.4788L331.113 79.9169L331.861 80.4788C335.591 83.3081 340.056 85.2479 344.54 85.9703C346.776 86.3315 349.554 86.4385 351.704 86.2512C357.16 85.7696 362.392 83.7563 366.619 80.4988C366.963 80.238 367.273 79.9972 367.32 79.9637C367.366 79.9303 367.65 80.1042 368.12 80.4654C372.241 83.6024 377.063 85.5489 382.308 86.1776C383.531 86.3248 386.316 86.385 387.599 86.2846C394.67 85.7428 401.026 82.7998 405.993 77.7832C410.127 73.6094 412.925 68.2583 413.983 62.4993C414.347 60.5194 414.413 59.6967 414.42 57.1482C414.42 54.5664 414.36 53.8105 414.016 51.8975C412.991 46.1786 410.306 40.8945 406.317 36.7541C401.37 31.6104 395.1 28.5938 388.016 27.9516C386.838 27.8446 383.081 27.9048 382.05 28.0453C376.712 28.781 371.97 30.7342 367.994 33.8244L367.406 34.2859L366.447 33.5702C362.954 30.9482 358.781 29.1155 354.528 28.3262C352.57 27.965 351.962 27.9182 349.27 27.9182C346.578 27.9182 345.962 27.965 344.011 28.3262C339.48 29.169 335.036 31.1756 331.563 33.9515L331.12 34.306L330.505 33.8244C329.711 33.1956 328.388 32.306 327.343 31.6974C323.758 29.6171 319.697 28.3329 315.458 27.9449C314.095 27.8245 310.517 27.8981 309.22 28.0787C304.2 28.7744 299.676 30.6338 295.688 33.6371L294.821 34.2859L294.232 33.8311C291.183 31.4566 287.413 29.6305 283.623 28.6941C281.156 28.0854 279.946 27.9449 277.009 27.9182C275.68 27.9115 274.476 27.9115 274.33 27.9249ZM279.589 34.1321C283.405 34.6672 286.778 35.9849 289.774 38.1119C290.112 38.3527 290.423 38.5734 290.456 38.5935C290.489 38.6203 290.357 38.8477 290.158 39.0952C289.576 39.8376 288.769 41.0282 288.187 41.9981C287.552 43.0482 286.481 45.2355 286.051 46.3458C283.094 53.9777 283.398 62.3923 286.891 69.7901C287.678 71.4489 288.822 73.3418 289.96 74.8401C290.251 75.2281 290.476 75.5625 290.462 75.5893C290.396 75.6963 288.624 76.8601 287.889 77.2815C282.578 80.3316 275.997 81.0674 270.13 79.2748C268.305 78.7196 266.069 77.6962 264.554 76.733C256.273 71.4422 252.225 61.6164 254.362 51.9778C255.724 45.8107 259.673 40.3727 265.13 37.122C267.928 35.4565 271.241 34.3729 274.562 34.0451C275.501 33.9515 278.682 34.005 279.589 34.1321ZM315.901 34.1388C318.52 34.5067 320.795 35.209 323.077 36.3461C324.744 37.1822 326.794 38.4999 326.722 38.6871C326.708 38.734 326.457 39.0818 326.166 39.4631C323.084 43.5432 321.139 48.4662 320.491 53.8038C320.352 54.9944 320.293 57.8907 320.392 59.1883C320.828 64.9474 322.813 70.2717 326.206 74.7933C326.503 75.1879 326.748 75.5357 326.748 75.5625C326.748 75.5893 326.444 75.8234 326.067 76.0842C318.573 81.3483 308.718 81.6359 300.999 76.82C299.848 76.1043 299.153 75.5826 299.213 75.4889C299.233 75.4488 299.484 75.1143 299.762 74.7465C305.172 67.5761 306.971 58.1114 304.59 49.3357C303.618 45.7505 301.958 42.366 299.702 39.3694C299.193 38.6871 299.167 38.6336 299.279 38.5467C301.177 37.0885 303.783 35.7441 306.112 35.0217C307.825 34.4866 309.154 34.2257 311.238 34.0117C311.892 33.9448 315.173 34.0317 315.901 34.1388ZM352.147 34.1321C355.004 34.5133 357.888 35.4632 360.295 36.821C360.891 37.1554 362.604 38.2724 362.948 38.5467C363.06 38.6336 363.034 38.6871 362.524 39.3694C359.264 43.7038 357.326 48.6735 356.737 54.2052C356.605 55.4894 356.585 58.399 356.704 59.6565C357.14 64.2183 358.483 68.3787 360.745 72.1913C361.307 73.1345 362.233 74.499 362.776 75.1679L363.073 75.5357L362.882 75.6896C362.782 75.7765 362.372 76.0708 361.969 76.3384C358.973 78.3785 355.593 79.636 351.882 80.0975C350.619 80.258 347.94 80.258 346.657 80.0975C343.356 79.6962 340.248 78.626 337.516 76.9605C336.669 76.4454 335.585 75.6963 335.512 75.5759C335.492 75.5424 335.717 75.1879 336.021 74.7933C339.414 70.2717 341.405 64.9407 341.835 59.1883C341.928 57.8974 341.875 55.0747 341.736 53.8373C341.114 48.5397 339.189 43.6636 336.081 39.4898C335.776 39.0818 335.519 38.7206 335.499 38.6805C335.485 38.6336 335.79 38.3795 336.187 38.0985C339.461 35.811 343.178 34.4331 347.12 34.0451C348.079 33.9515 351.174 34.005 352.147 34.1321ZM388.452 34.1388C392.368 34.6939 395.728 36.0384 398.903 38.3059C400.722 39.6102 402.679 41.5901 404.121 43.5834C405.14 44.9813 406.324 47.2087 406.932 48.8541C409.214 54.9878 408.87 61.6765 405.993 67.4824C402.521 74.4655 395.88 79.1611 388.128 80.1042C386.812 80.258 384.279 80.258 382.969 80.0975C379.001 79.6159 375.409 78.2246 372.274 75.9571C371.798 75.616 371.738 75.5491 371.811 75.4555C371.851 75.3886 372.148 74.9939 372.459 74.5726C378.035 67.0543 379.662 57.1616 376.805 48.1518C376.361 46.7538 375.773 45.3091 375.072 43.9044C374.271 42.3125 373.484 41.0149 372.466 39.6437C372.056 39.0885 371.731 38.627 371.738 38.6203C371.751 38.6136 372.009 38.4263 372.32 38.2056C374.285 36.7942 376.732 35.5902 379.04 34.908C380.509 34.4732 381.984 34.199 383.796 34.0117C384.451 33.9448 387.731 34.0317 388.452 34.1388ZM295.688 44.2054C297.764 47.3425 298.915 50.5063 299.444 54.5062C299.577 55.5028 299.557 58.9475 299.411 59.991C299.008 62.9006 298.234 65.3688 296.977 67.8035C296.468 68.7934 295.727 70.0041 295.178 70.7399L294.821 71.2282L294.457 70.7064C293.657 69.5827 293.108 68.6597 292.486 67.3821C291.289 64.934 290.641 62.807 290.257 60.0579C290.092 58.8673 290.092 55.2954 290.257 54.1383C290.853 50.0113 292.202 46.6 294.49 43.4429L294.828 42.9814L294.98 43.1753C295.066 43.2824 295.383 43.7439 295.688 44.2054ZM331.583 43.6235C333.885 46.901 335.208 50.3859 335.717 54.4727C335.856 55.6098 335.882 58.3255 335.757 59.4224C335.419 62.4123 334.679 64.9674 333.402 67.5292C332.727 68.8871 331.292 71.1613 331.113 71.1613C331.027 71.1613 330.221 69.9974 329.691 69.1212C327.978 66.2784 326.92 63.1414 326.51 59.7234C326.371 58.5729 326.351 55.7904 326.47 54.7403C326.894 51.1818 327.912 48.0782 329.599 45.2422C330.062 44.4529 331.047 43.0014 331.113 43.0014C331.133 43.0014 331.338 43.2824 331.583 43.6235ZM368.213 44.1385C370.376 47.3491 371.698 51.1016 372.056 55.0078C372.155 56.078 372.135 58.4124 372.022 59.4893C371.593 63.5695 370.164 67.3487 367.77 70.7131L367.406 71.2282L366.969 70.6262C366.361 69.7968 365.759 68.8068 365.236 67.7834C362.974 63.3822 362.187 58.4793 362.928 53.4828C363.444 50.0581 364.859 46.5532 366.89 43.6703L367.379 42.9814L367.538 43.1753C367.624 43.2824 367.928 43.7171 368.213 44.1385Z" fill="url(#paint0_linear_86_3)"/>
</g>
<g opacity="0.59" clip-path="url(#clip1_86_3)">
<path d="M489.347 1.14998C468.533 2.74748 451.242 18.0177 447.17 38.4093C446.45 42.0429 446.309 43.609 446.324 48.0413C446.34 51.346 446.403 52.5206 446.669 54.2277C448 62.9513 451.18 70.3593 456.411 76.9373C458.071 79.036 461.657 82.6225 463.725 84.267C472.558 91.2521 483.317 94.8074 494.469 94.4315C501.579 94.1809 507.703 92.6304 513.952 89.5137C527.28 82.8418 536.52 70.328 539.026 55.559C541.564 40.602 536.724 25.3787 526.027 14.6817C516.395 5.0341 502.989 0.100639 489.347 1.14998ZM498.697 5.59792C502.065 6.11476 506.685 7.35204 506.685 7.72792C506.685 7.97852 493.56 37.5166 493.294 37.8768C493.122 38.1118 493.028 38.1431 492.793 38.0021C492.558 37.8612 479.042 7.72792 479.151 7.63396C479.183 7.60263 479.982 7.33638 480.921 7.0388C482.942 6.38101 485.808 5.7702 487.891 5.53528C488.705 5.44131 489.629 5.33167 489.927 5.30035C491.164 5.15939 497.131 5.363 498.697 5.59792ZM480.436 28.0726C484.743 37.6419 488.361 45.5511 488.486 45.6607C488.658 45.8017 489.833 45.8487 492.996 45.8487C497.069 45.8487 497.288 45.833 497.585 45.5354C497.742 45.3632 501.344 37.5009 505.589 28.0726C509.817 18.6442 513.341 10.8603 513.404 10.7976C513.639 10.5627 517.006 12.7554 519.543 14.7757C522.535 17.1876 525.996 20.9308 527.954 23.8752L528.674 24.9715L517.805 46.7257C511.822 58.707 506.794 68.6052 506.654 68.7305C506.419 68.9498 506.372 68.9498 506.137 68.6835C505.996 68.5113 504.022 64.1729 501.767 59.0202C499.512 53.8832 497.538 49.5449 497.397 49.3726C497.147 49.075 496.912 49.0593 492.855 49.0593C489.426 49.0593 488.517 49.1063 488.267 49.2786C488.063 49.4196 486.497 52.9435 483.881 59.0829C481.532 64.6585 479.715 68.7305 479.559 68.8088C479.355 68.9185 479.23 68.8402 478.995 68.5113C478.838 68.2763 473.889 58.3781 468.016 46.5065L457.319 24.9245L457.992 23.9535C460.952 19.6779 464.79 15.7937 468.83 12.9746C470.224 12.0036 472.354 10.688 472.542 10.688C472.589 10.688 476.144 18.5189 480.436 28.0726ZM468.752 63.9067C478.008 82.5129 478.541 83.5466 479.042 83.7658C479.731 84.0477 480.42 83.8128 480.812 83.155C480.984 82.8731 483.678 76.906 486.794 69.8895C489.927 62.873 492.621 56.9842 492.777 56.8119C493.028 56.5457 493.09 56.53 493.294 56.7493C493.419 56.8746 496.191 62.9357 499.433 70.2027C505.275 83.249 505.369 83.4369 505.933 83.7188C506.481 83.9851 506.544 83.9851 507.061 83.7502C507.578 83.4996 508.063 82.5755 516.035 66.5535C520.671 57.2348 526.325 45.8487 528.611 41.2441L532.777 32.8807L533.106 33.8048C534.062 36.4673 534.845 39.7562 535.221 42.7007C535.549 45.3005 535.471 50.8761 535.048 53.5856C533.372 64.5018 527.734 74.2278 519.136 81.0407C504.758 92.4111 484.868 93.2569 469.723 83.1237C467.014 81.3069 465.432 80.0227 463.129 77.7204C456.52 71.1268 452.37 62.873 450.992 53.5699C450.647 51.2207 450.537 46.7101 450.757 44.2042C451.07 40.6959 451.963 36.4986 452.981 33.7891L453.325 32.8651L456.16 38.5659C457.726 41.714 463.396 53.1157 468.752 63.9067Z" fill="url(#paint1_linear_86_3)"/>
</g>
<g opacity="0.59" clip-path="url(#clip2_86_3)">
<path d="M167.558 5.17467C162.13 5.45915 157.326 6.48237 152.508 8.38197C145.006 11.3461 138.353 16.2557 133.278 22.5831C127.666 29.5758 124.188 38.0736 123.307 46.9475C123.147 48.5397 123.115 49.1087 123.087 50.9624C123.06 52.8849 123.105 54.2018 123.257 55.9179C124.11 65.3654 127.799 74.244 133.92 81.5625C135.508 83.4575 137.651 85.6141 139.546 87.2154C145.703 92.4187 153.127 95.9563 160.964 97.4155C163.924 97.9707 166.457 98.2001 169.581 98.2001C171.316 98.2001 172.293 98.1634 173.729 98.0349C182.411 97.2824 190.642 94.1118 197.658 88.8214C199.397 87.5045 200.755 86.3207 202.457 84.6184C204.866 82.2141 206.564 80.1493 208.367 77.4375C213.025 70.4402 215.635 62.5206 216.085 54.0366C216.154 52.7244 216.113 49.3014 216.016 48.1176C215.599 43.1162 214.552 38.6563 212.763 34.2285C206.959 19.8713 194.244 9.24001 179.135 6.1153C177.125 5.69775 175.225 5.43163 173.018 5.25726C172.151 5.18844 168.379 5.13338 167.558 5.17467ZM173.087 7.13851C174.271 7.23946 175.069 7.33122 176.157 7.49182C184.324 8.68939 192.106 12.1858 198.323 17.4624C199.736 18.66 201.549 20.4128 202.714 21.7113C209.271 29.0069 213.213 37.9451 214.084 47.4982C214.328 50.1961 214.328 53.1419 214.084 55.8261C213.153 65.9711 208.762 75.4966 201.673 82.7555C194.464 90.1291 185.32 94.7221 175.289 95.993C172.146 96.3922 168.668 96.4519 165.447 96.1536C158.317 95.5021 151.315 93.0794 145.327 89.1884C142.707 87.4907 140.45 85.66 138.142 83.3566C134.223 79.4518 131.121 74.9965 128.873 70.041C126.749 65.3562 125.528 60.5935 125.065 55.2067C124.968 54.0642 124.927 50.577 124.996 49.3335C125.4 42.1802 127.386 35.4398 130.883 29.3739C134.246 23.5421 138.94 18.5224 144.662 14.636C148.924 11.7407 153.701 9.60708 158.753 8.34068C161.488 7.65241 164.236 7.24404 167.374 7.05592C168.154 7.01003 172.289 7.06969 173.087 7.13851Z" fill="url(#paint2_linear_86_3)"/>
<path d="M167.512 8.47826C162.809 8.75816 158.762 9.57948 154.665 11.0891C149.668 12.929 145.148 15.6224 141.037 19.2151C140.037 20.0869 138.013 22.1104 137.141 23.1107C133.581 27.1852 130.915 31.6406 129.084 36.5547C127.777 40.0741 126.955 43.6025 126.588 47.2687C126.437 48.7783 126.414 49.1866 126.391 51.0541C126.359 53.5273 126.441 55.0369 126.721 57.2622C127.708 64.9983 130.846 72.4223 135.719 78.5479C137.807 81.1724 140.298 83.6456 142.941 85.7241C151.948 92.8086 163.484 96.0068 174.922 94.5935C180.479 93.9099 185.82 92.1663 190.656 89.4637C202.127 83.0491 210.083 71.7845 212.249 58.8957C212.657 56.4501 212.832 54.3073 212.832 51.7194C212.836 49.9667 212.791 48.971 212.635 47.4063C211.832 39.1518 208.643 31.2872 203.481 24.7992C201.448 22.2435 199.03 19.8254 196.488 17.8019C190.973 13.4154 184.434 10.4375 177.529 9.16194C176.074 8.89122 174.67 8.70769 172.995 8.56086C172.197 8.49203 168.274 8.43238 167.512 8.47826ZM175.308 10.1117C175.34 10.4559 175.496 21.1515 175.464 21.1836C175.455 21.1973 175.023 21.2203 174.519 21.2386L173.592 21.2662V20.6743C173.587 19.7336 173.459 12.5252 173.445 12.5115C173.436 12.5023 172.761 14.4753 171.94 16.898L170.449 21.2983H169.623H168.797L167.173 16.9944C166.278 14.6313 165.535 12.6813 165.521 12.6629C165.507 12.6445 165.498 12.9015 165.502 13.2364C165.548 15.6729 165.608 19.8621 165.608 20.5504V21.3901H164.667H163.727V20.8716C163.727 20.5917 163.685 18.0451 163.635 15.2186C163.589 12.3922 163.552 10.0796 163.557 10.075C163.562 10.0704 164.195 10.0613 164.961 10.0521L166.36 10.0337L167.985 14.4248C168.879 16.8429 169.627 18.8205 169.641 18.8205C169.655 18.8205 170.316 16.8154 171.109 14.3698L172.555 9.91903L173.587 9.90526C174.156 9.90067 174.771 9.89149 174.955 9.88232L175.285 9.87314L175.308 10.1117ZM196.281 18.9674C196.561 19.2748 196.855 19.6006 196.938 19.6969L197.089 19.8713L194.561 23.5053C193.171 25.5013 192.042 27.1439 192.056 27.1577C192.065 27.1714 193.854 26.2675 196.029 25.1525C198.209 24.0422 200.003 23.1336 200.021 23.1428C200.039 23.152 200.351 23.4824 200.705 23.8861C201.108 24.3312 201.347 24.6386 201.333 24.6799C201.32 24.7166 200.2 26.396 198.846 28.4149C197.493 30.4338 196.396 32.0948 196.405 32.104C196.41 32.1086 198.19 31.1725 200.351 30.0117L204.288 27.9102L204.508 28.1488C205.054 28.7361 205.619 29.3647 205.619 29.3922C205.619 29.4289 195.208 34.6047 195.13 34.6047C195.07 34.6047 193.781 33.2006 193.781 33.1364C193.781 33.1134 194.887 31.4295 196.236 29.3922C197.585 27.355 198.686 25.6802 198.672 25.671C198.663 25.6619 196.864 26.5658 194.676 27.6762C192.482 28.7866 190.679 29.6951 190.665 29.6905C190.606 29.6859 189.353 28.2268 189.358 28.1671C189.362 28.135 190.679 26.0978 192.29 23.6384C193.9 21.179 195.332 18.9949 195.465 18.7838C195.602 18.5774 195.726 18.4076 195.745 18.4076C195.763 18.4076 196.006 18.6599 196.281 18.9674ZM143.813 20.4035C144.423 20.5641 145.144 21.1056 145.52 21.6837C145.919 22.3031 145.992 23.1015 145.722 23.9458C145.69 24.0422 145.713 24.0376 146.07 23.8678C146.575 23.6292 146.993 23.5558 147.479 23.6246C148.172 23.7255 148.695 24.0146 149.319 24.6432C149.92 25.2489 150.191 25.8683 150.191 26.6484C150.191 27.3779 149.879 28.1992 149.31 28.9609C149.145 29.1858 148.154 30.2319 146.984 31.4249L144.946 33.4989L142.166 30.755C140.638 29.25 138.821 27.4605 138.133 26.7814C137.444 26.1069 136.889 25.5334 136.894 25.515C136.903 25.4921 137.821 24.5469 138.94 23.4135C140.165 22.1655 141.12 21.234 141.349 21.0643C141.762 20.7523 142.225 20.5137 142.62 20.4081C142.95 20.321 143.496 20.3164 143.813 20.4035ZM172.169 23.2667C176.005 23.6705 179.024 24.5239 182.241 26.1161C186.325 28.135 189.715 30.9569 192.473 34.6276C195.731 38.9637 197.621 44.0522 198.053 49.6547C198.121 50.5494 198.121 52.8115 198.053 53.7154C197.621 59.3362 195.712 64.4247 192.372 68.8571C188.275 74.2944 182.397 78.0844 175.836 79.5206C171.403 80.4888 166.801 80.4108 162.465 79.2958C156.156 77.6715 150.572 73.9044 146.658 68.6277C143.643 64.5624 141.799 59.8226 141.248 54.7019C141.046 52.8344 141.055 50.3796 141.266 48.4617C142.01 41.8406 145.034 35.7334 149.87 31.0899C151.136 29.8786 152.499 28.7912 153.94 27.8414C158.097 25.1113 162.768 23.5512 167.856 23.2071C168.375 23.1749 171.706 23.2208 172.169 23.2667Z" fill="url(#paint3_linear_86_3)"/>
<path d="M142.533 22.3582C142.202 22.4592 141.84 22.7574 140.922 23.6981C140.404 24.2349 139.853 24.8039 139.697 24.969L139.413 25.2719L140.514 26.3685L141.62 27.4697L142.808 26.2538C143.464 25.5839 144.074 24.9323 144.157 24.8084C144.602 24.1569 144.506 23.409 143.905 22.84C143.46 22.4133 142.941 22.2344 142.533 22.3582Z" fill="url(#paint4_linear_86_3)"/>
<path d="M146.024 25.3729C145.616 25.5197 145.35 25.7445 143.973 27.1257L142.643 28.4609L143.905 29.6952L145.166 30.9294L146.548 29.5437C147.819 28.2682 147.942 28.1305 148.098 27.8139C148.204 27.5983 148.277 27.3688 148.296 27.2128C148.365 26.5475 147.883 25.7904 147.172 25.4417C146.832 25.2765 146.378 25.249 146.024 25.3729Z" fill="url(#paint5_linear_86_3)"/>
<path d="M168.384 24.4964C164.479 24.6845 160.854 25.6252 157.445 27.3275C149.704 31.2047 144.258 38.5461 142.826 47.0347C142.001 51.9351 142.528 56.964 144.341 61.5616C146.162 66.1729 149.259 70.2337 153.242 73.2391C158.124 76.919 164.03 78.8232 170.128 78.6855C170.784 78.6672 171.559 78.6351 171.848 78.6075C177.529 78.0936 182.571 76.0151 186.967 72.3719C187.807 71.6744 189.541 69.9538 190.248 69.1095C193.267 65.5214 195.267 61.3643 196.162 56.8309C196.465 55.2892 196.616 53.8944 196.653 52.1783C196.873 42.8501 192.294 34.1229 184.466 28.938C181.36 26.8824 177.854 25.4967 174.142 24.8589C172.367 24.5561 170.109 24.4092 168.384 24.4964ZM172.243 25.5426C177.515 26.0886 182.388 28.1671 186.485 31.613C187.247 32.2554 188.958 33.9715 189.578 34.7194C191.826 37.422 193.405 40.2668 194.46 43.5154C195.139 45.5893 195.602 48.0808 195.685 50.0676C195.699 50.4072 195.722 50.7834 195.735 50.9027L195.758 51.123H182.883H170.013V38.2662V25.4141L170.784 25.4416C171.21 25.46 171.862 25.5059 172.243 25.5426ZM169.095 64.9983C169.095 72.0002 169.081 77.7403 169.063 77.7495C169.04 77.7587 168.678 77.7495 168.246 77.7311C163.048 77.4742 158.055 75.6709 153.885 72.5508C152.843 71.7662 152.123 71.1376 151.058 70.0777C149.636 68.6507 148.69 67.499 147.653 65.9206C145.107 62.0342 143.629 57.5146 143.418 52.9446L143.386 52.2701H156.238H169.095V64.9983Z" fill="url(#paint6_linear_86_3)"/>
</g>
<g opacity="0.59">
<path d="M44.6356 11.0774C40.4579 11.2129 36.3703 11.9081 32.4537 13.1541C26.7318 14.9728 21.4557 17.9414 16.8143 21.9549C15.9454 22.7069 14.1177 24.495 13.3074 25.3913C9.28723 29.8201 6.33403 34.8216 4.46576 40.3653C3.46636 43.3251 2.79108 46.5079 2.50296 49.6339C2.26887 52.1434 2.26887 54.9502 2.50296 57.4597C3.61492 69.3996 9.92199 80.3557 19.8485 87.5957C26.3222 92.3174 34.0203 95.1898 42.1371 95.9068C44.7257 96.1386 47.5483 96.1386 50.1279 95.9112C54.6297 95.509 59.0865 94.4116 63.2957 92.6628C64.4077 92.1994 66.339 91.2857 67.3249 90.7523C72.367 88.0373 76.8103 84.3736 80.4117 79.9754C85.6879 73.5267 88.9292 65.6615 89.6945 57.4597C89.9286 54.9502 89.9286 52.1434 89.6945 49.6339C89.0733 42.9797 86.8133 36.5136 83.1263 30.8562C81.8568 28.9063 80.2587 26.8515 78.6695 25.1289C78.0393 24.4469 76.3961 22.838 75.6533 22.1779C68.5809 15.8953 59.7078 12.0786 50.1729 11.2261C48.4982 11.0774 46.3553 11.0206 44.6356 11.0774ZM44.9553 15.3882C44.9418 15.4581 43.8253 23.2796 42.4703 32.7799C40.0168 50.0011 40.0123 50.0492 39.8907 50.1629C39.8277 50.2284 35.9876 53.1489 31.3552 56.6596C26.7273 60.1703 20.3527 65.0013 17.197 67.3972C14.0412 69.793 11.4391 71.756 11.4211 71.756C11.3671 71.756 10.2326 69.5001 9.84546 68.6213C5.85683 59.5276 5.61823 49.2797 9.18369 40.0811C10.6243 36.3693 12.6816 32.8498 15.2387 29.7414C22.185 21.2903 32.3051 16.1139 43.3751 15.3576C44.0909 15.3095 44.4106 15.292 44.7617 15.2789C44.9778 15.2701 44.9823 15.2701 44.9553 15.3882ZM49.1825 15.3838C56.3944 15.9084 63.5028 18.4529 69.2922 22.5757C71.0434 23.8217 72.2589 24.8404 73.9471 26.4799C75.9819 28.4604 77.382 30.1086 78.9036 32.3208C84.684 40.7325 86.7863 50.9717 84.7875 60.9791C84.2428 63.6985 83.3064 66.5796 82.1404 69.1066C81.7623 69.9198 80.8619 71.6686 80.8169 71.6686C80.7989 71.6686 78.0123 69.5613 74.6179 66.9862C71.228 64.4111 64.8444 59.5714 60.4326 56.2355C56.0253 52.8953 52.3968 50.141 52.3698 50.106C52.3428 50.0754 51.2038 42.2758 49.8398 32.7799C48.4757 23.2796 47.3457 15.4538 47.3322 15.3882L47.3052 15.2658L47.7959 15.292C48.0615 15.3051 48.6873 15.3488 49.1825 15.3838ZM57.5784 65.1456C63.881 67.6245 71.165 70.4882 73.7625 71.5156C76.3646 72.543 78.728 73.4742 79.0162 73.5835C79.3088 73.6972 79.5474 73.8021 79.5474 73.8152C79.5474 73.8327 79.2638 74.2568 78.9171 74.764C74.5098 81.1995 68.2973 86.1355 60.9098 89.056C54.8638 91.4518 48.3407 92.3262 41.777 91.6223C35.5104 90.9534 29.6535 88.8854 24.3324 85.4622C20.4473 82.9658 17.0574 79.8136 14.2888 76.128C13.8386 75.5291 12.7401 73.9464 12.7401 73.9027C12.7401 73.8896 13.7305 73.483 14.937 73.0064C16.1435 72.5255 18.2729 71.6774 19.673 71.1221C23.7471 69.4957 29.0233 67.3928 35.4744 64.8265C43.8433 61.495 45.3559 60.8961 45.7161 60.743C45.8917 60.6731 46.0537 60.6206 46.0762 60.6294C46.1032 60.6337 51.2758 62.6667 57.5784 65.1456Z" fill="url(#paint7_linear_86_3)"/>
</g>
<g opacity="0.59">
<path d="M609.636 3.07435C588.393 6.5757 572.049 23.996 570.228 45.0472C568.927 59.8739 574.043 73.5335 584.664 83.6052C600.618 98.6913 624.679 100.853 643.061 88.7924C652.728 82.4381 659.795 72.6257 662.829 61.3004C663.87 57.5397 664 56.3293 664 49.5428C664 42.7562 663.87 41.5459 662.829 37.7852C657.367 17.4255 639.722 3.37694 618.74 2.64209C615.228 2.51241 612.02 2.64209 609.636 3.07435ZM628.711 5.14922C649.043 10.4661 663.046 28.6212 663.046 49.5428C663.046 70.6805 648.653 89.0518 628.104 94.1093C623.508 95.2331 615.228 95.6222 610.459 94.9738C600.618 93.5473 591.341 88.7492 584.188 81.4007C577.815 74.8303 574.13 68.1301 572.092 59.2255C570.965 54.4274 570.965 44.5717 572.092 39.8601C574.26 30.6096 578.335 23.3043 585.055 16.8204C591.861 10.2499 599.795 6.05698 608.725 4.37115C613.841 3.42017 623.465 3.76598 628.711 5.14922Z" fill="url(#paint8_linear_86_3)"/>
<path d="M613.321 7.05118C597.67 8.86669 585.011 17.6417 578.595 31.1715C575.43 37.8284 574.737 41.2001 574.78 49.7589C574.823 58.4907 575.474 61.5597 578.855 68.3463C584.404 79.5419 594.549 87.7117 606.818 90.8673C612.28 92.2937 620.43 92.4666 625.893 91.2563C644.058 87.3659 657.54 72.4528 659.621 53.9951C661.615 36.1426 651.514 18.4197 634.997 10.8119C628.537 7.82926 619.65 6.27311 613.321 7.05118ZM623.075 11.1145C627.627 11.8493 633.653 14.0539 637.425 16.3449C656.326 27.9728 661.789 52.828 649.477 71.156C640.893 83.951 625.589 90.435 610.286 87.7982C596.326 85.3343 584.708 75.349 580.199 61.9055C571.875 36.791 590.3 10.9416 616.789 10.6822C618.696 10.6822 621.514 10.8551 623.075 11.1145Z" fill="url(#paint9_linear_86_3)"/>
<path d="M612.454 15.2642C611.977 15.3507 610.546 15.6532 609.289 15.8694C608.032 16.1287 606.861 16.6042 606.731 16.95C606.601 17.3391 607.815 18.8952 610.112 21.143C613.667 24.6443 617.396 29.4425 616.919 29.8747C616.442 30.3502 614.188 29.1399 612.063 27.1947C609.462 24.8605 604.477 21.2727 602.136 20.0623L600.445 19.241L598.104 20.6675C595.676 22.094 590.777 26.676 590.777 27.4541C590.777 27.7134 592.295 28.8373 594.115 29.9612C597.757 32.2522 603.523 36.6181 603.566 37.0936C603.566 37.8716 601.312 37.3529 598.104 35.8832C594.549 34.2838 588.74 32.2522 587.656 32.2522C586.225 32.2522 581.933 44.1827 583.017 45.2201C583.234 45.393 585.055 45.955 587.092 46.4737C597.15 48.9808 603.263 54.5138 604.954 62.6404C605.43 64.8017 605.387 65.1908 604.78 65.7959C604.13 66.4443 603.783 66.3579 600.228 64.7153L596.326 62.943H590.907C583.624 62.943 583.364 63.2456 586.659 67.2656C587.526 68.3463 589.086 70.4212 590.084 71.8909L591.904 74.6141H594.115C595.849 74.6141 596.933 74.2683 599.058 73.1012L601.789 71.5883L618.393 71.6747L634.997 71.8044L635.214 73.3173C635.43 74.7438 635.517 74.8303 636.948 74.7006C640.156 74.398 646.919 70.5508 646.919 68.9947C646.919 67.3089 640.893 63.7211 637.078 63.1159C635.3 62.8565 635.257 62.8565 635.127 64.2398C634.954 66.0553 633.783 66.8766 632.786 65.8824C632.136 65.234 632.179 64.8449 633.219 60.5223C636.558 46.3872 635.777 37.0071 630.315 26.4166C628.971 23.8663 627.497 21.9211 624.592 18.9385L620.691 14.9616L617.006 15.0048C614.968 15.0481 612.93 15.1345 612.454 15.2642ZM626.413 54.9461C627.8 56.3293 627.93 56.6319 627.714 58.3177C627.367 60.7817 625.85 62.0784 623.292 62.0784C621.731 62.0784 621.254 61.8623 620.3 60.7384C618.436 58.5339 618.87 55.3783 621.254 54.1248C623.248 53.0441 624.722 53.2603 626.413 54.9461Z" fill="url(#paint10_linear_86_3)"/>
</g>
<defs>
<linearGradient id="paint0_linear_86_3" x1="331.113" y1="86.3419" x2="331.113" y2="27.886" gradientUnits="userSpaceOnUse">
<stop stop-color="#034753"/>
<stop offset="0.0001" stop-color="#044F5C" stop-opacity="0.993333"/>
<stop offset="1" stop-color="#10A1BA" stop-opacity="0.92"/>
</linearGradient>
<linearGradient id="paint1_linear_86_3" x1="493.006" y1="94.4585" x2="493.006" y2="1.01108" gradientUnits="userSpaceOnUse">
<stop offset="0.0520833" stop-color="#034753"/>
<stop offset="1" stop-color="#10A1BA"/>
</linearGradient>
<linearGradient id="paint2_linear_86_3" x1="169.599" y1="98.2001" x2="169.599" y2="5.16045" gradientUnits="userSpaceOnUse">
<stop offset="0.0885417" stop-color="#034753"/>
<stop offset="1" stop-color="#1BD4F4" stop-opacity="0.65"/>
</linearGradient>
<linearGradient id="paint3_linear_86_3" x1="169.608" y1="94.921" x2="169.608" y2="8.46213" gradientUnits="userSpaceOnUse">
<stop offset="0.0885417" stop-color="#034753"/>
<stop offset="1" stop-color="#1BD4F4" stop-opacity="0.65"/>
</linearGradient>
<linearGradient id="paint4_linear_86_3" x1="141.923" y1="27.4697" x2="141.923" y2="22.3197" gradientUnits="userSpaceOnUse">
<stop offset="0.0885417" stop-color="#034753"/>
<stop offset="1" stop-color="#1BD4F4" stop-opacity="0.65"/>
</linearGradient>
<linearGradient id="paint5_linear_86_3" x1="145.473" y1="30.9294" x2="145.473" y2="25.2959" gradientUnits="userSpaceOnUse">
<stop offset="0.0885417" stop-color="#034753"/>
<stop offset="1" stop-color="#1BD4F4" stop-opacity="0.65"/>
</linearGradient>
<linearGradient id="paint6_linear_86_3" x1="169.554" y1="78.6925" x2="169.554" y2="24.4715" gradientUnits="userSpaceOnUse">
<stop offset="0.0885417" stop-color="#034753"/>
<stop offset="1" stop-color="#1BD4F4" stop-opacity="0.65"/>
</linearGradient>
<linearGradient id="paint7_linear_86_3" x1="46.0987" y1="96.0812" x2="46.0987" y2="11.0557" gradientUnits="userSpaceOnUse">
<stop stop-color="#034753"/>
<stop offset="1" stop-color="#10A1BA"/>
</linearGradient>
<linearGradient id="paint8_linear_86_3" x1="617.015" y1="96.5647" x2="617.015" y2="2.59412" gradientUnits="userSpaceOnUse">
<stop stop-color="#034753"/>
<stop offset="1" stop-color="#13B8D5"/>
</linearGradient>
<linearGradient id="paint9_linear_86_3" x1="617.015" y1="96.5647" x2="617.015" y2="2.59412" gradientUnits="userSpaceOnUse">
<stop stop-color="#034753"/>
<stop offset="1" stop-color="#13B8D5"/>
</linearGradient>
<linearGradient id="paint10_linear_86_3" x1="617.015" y1="96.5647" x2="617.015" y2="2.59412" gradientUnits="userSpaceOnUse">
<stop stop-color="#034753"/>
<stop offset="1" stop-color="#13B8D5"/>
</linearGradient>
<clipPath id="clip0_86_3">
<rect width="169.324" height="59.3965" fill="white" transform="translate(246.451 27.4165)"/>
</clipPath>
<clipPath id="clip1_86_3">
<rect width="93.9706" height="93.9706" fill="white" transform="translate(445.917 0.821045)"/>
</clipPath>
<clipPath id="clip2_86_3">
<rect width="93.9706" height="93.9706" fill="white" transform="translate(122.339 4.36707)"/>
</clipPath>
</defs>
</svg>
