<svg width="37" height="37" viewBox="0 0 37 37" fill="none" xmlns="http://www.w3.org/2000/svg">
<path d="M18.4821 0.583344C8.59209 0.583344 0.583336 8.61001 0.583336 18.5C0.583336 28.39 8.59209 36.4167 18.4821 36.4167C28.39 36.4167 36.4167 28.39 36.4167 18.5C36.4167 8.61001 28.39 0.583344 18.4821 0.583344ZM30.8983 11.3333H25.6129C25.0522 9.11429 24.2218 6.97224 23.1404 4.95501C26.4086 6.08018 29.1625 8.34435 30.8983 11.3333ZM18.5 4.23834C19.9871 6.38834 21.1517 8.77126 21.9221 11.3333H15.0779C15.8483 8.77126 17.0129 6.38834 18.5 4.23834ZM4.6325 22.0833C4.34584 20.9367 4.16667 19.7363 4.16667 18.5C4.16667 17.2638 4.34584 16.0633 4.6325 14.9167H10.6883C10.545 16.0992 10.4375 17.2817 10.4375 18.5C10.4375 19.7183 10.545 20.9008 10.6883 22.0833H4.6325ZM6.10167 25.6667H11.3871C11.9604 27.9063 12.7846 30.0563 13.8596 32.045C10.5879 30.926 7.83212 28.6602 6.10167 25.6667ZM11.3871 11.3333H6.10167C7.83212 8.33979 10.5879 6.07403 13.8596 4.95501C12.7782 6.97224 11.9478 9.11429 11.3871 11.3333ZM18.5 32.7617C17.0129 30.6117 15.8483 28.2288 15.0779 25.6667H21.9221C21.1517 28.2288 19.9871 30.6117 18.5 32.7617ZM22.6925 22.0833H14.3075C14.1463 20.9008 14.0208 19.7183 14.0208 18.5C14.0208 17.2817 14.1463 16.0813 14.3075 14.9167H22.6925C22.8538 16.0813 22.9792 17.2817 22.9792 18.5C22.9792 19.7183 22.8538 20.9008 22.6925 22.0833ZM23.1404 32.045C24.2154 30.0563 25.0396 27.9063 25.6129 25.6667H30.8983C29.1625 28.6557 26.4086 30.9198 23.1404 32.045ZM26.3117 22.0833C26.455 20.9008 26.5625 19.7183 26.5625 18.5C26.5625 17.2817 26.455 16.0992 26.3117 14.9167H32.3675C32.6542 16.0633 32.8333 17.2638 32.8333 18.5C32.8333 19.7363 32.6542 20.9367 32.3675 22.0833H26.3117Z" fill="#F48278"/>
</svg>
